<svg width="21" height="21" viewBox="0 0 21 21" fill="none" xmlns="http://www.w3.org/2000/svg">
<path d="M8.47963 0.5H1.47998C0.927696 0.5 0.47998 0.947715 0.47998 1.5V8.49965C0.47998 9.05194 0.927696 9.49965 1.47998 9.49965H8.47963C9.03192 9.49965 9.47963 9.05194 9.47963 8.49965V1.5C9.47963 0.947715 9.03192 0.5 8.47963 0.5Z" fill="#AAAAAA"/>
<path d="M8.47963 11.4985H1.47998C0.927696 11.4985 0.47998 11.9462 0.47998 12.4985V19.4982C0.47998 20.0504 0.927696 20.4982 1.47998 20.4982H8.47963C9.03192 20.4982 9.47963 20.0504 9.47963 19.4982V12.4985C9.47963 11.9462 9.03192 11.4985 8.47963 11.4985Z" fill="#AAAAAA"/>
<path d="M19.4816 0.5H12.482C11.9297 0.5 11.482 0.947715 11.482 1.5V8.49965C11.482 9.05194 11.9297 9.49965 12.482 9.49965H19.4816C20.0339 9.49965 20.4816 9.05194 20.4816 8.49965V1.5C20.4816 0.947715 20.0339 0.5 19.4816 0.5Z" fill="#AAAAAA"/>
<path d="M19.4816 11.4985H12.482C11.9297 11.4985 11.482 11.9462 11.482 12.4985V19.4982C11.482 20.0504 11.9297 20.4982 12.482 20.4982H19.4816C20.0339 20.4982 20.4816 20.0504 20.4816 19.4982V12.4985C20.4816 11.9462 20.0339 11.4985 19.4816 11.4985Z" fill="#AAAAAA"/>
</svg>
