<svg width="17" height="21" viewBox="0 0 17 21" fill="none" xmlns="http://www.w3.org/2000/svg">
<g clip-path="url(#clip0_1_50)">
<path d="M16.9799 1.52002C16.9799 0.967735 16.5322 0.52002 15.9799 0.52002H1.97998C1.4277 0.52002 0.97998 0.967735 0.97998 1.52002V12.866C0.97998 13.2633 1.21517 13.6229 1.57916 13.7821L15.5791 19.9071C16.2398 20.1962 16.9799 19.7121 16.9799 18.991V13.52V1.52002Z" fill="#AAAAAA"/>
<path d="M0.97998 1.52002C0.97998 0.967735 1.4277 0.52002 1.97998 0.52002H15.9799C16.5322 0.52002 16.9799 0.967735 16.9799 1.52002V12.866C16.9799 13.2633 16.7447 13.6229 16.3807 13.7821L2.3808 19.9071C1.72011 20.1962 0.97998 19.7121 0.97998 18.991V13.52V1.52002Z" fill="#AAAAAA"/>
</g>
<defs>
<clipPath id="clip0_1_50">
<rect width="16" height="20" fill="white" transform="translate(0.97998 0.52002)"/>
</clipPath>
</defs>
</svg>
