<svg width="20" height="20" viewBox="0 0 20 20" fill="none" xmlns="http://www.w3.org/2000/svg">
<path fill-rule="evenodd" clip-rule="evenodd" d="M10 0C15.5228 0 20 4.47717 20 10C20 15.5228 15.5228 20 10 20C4.47716 20 0 15.5228 0 10C0 4.47717 4.47716 0 10 0ZM7.5 15.3896V16.25H12.5V15.3896H12.3113C12.1646 15.3896 12.0021 15.368 11.8239 15.3247C11.6457 15.2706 11.4937 15.1677 11.3679 15.0162C11.2526 14.8647 11.195 14.6374 11.195 14.3344V7.54871H7.5V8.40912H7.68867C7.83543 8.40912 7.99266 8.43073 8.16039 8.474C8.33858 8.51733 8.49057 8.60931 8.61635 8.75C8.74214 8.89069 8.80502 9.10712 8.80502 9.39935V14.3344C8.80502 14.6374 8.74214 14.8647 8.61635 15.0162C8.50105 15.1677 8.35429 15.2706 8.1761 15.3247C8.00839 15.368 7.84592 15.3896 7.68867 15.3896H7.5ZM8.96227 5.81171C9.22432 5.99567 9.54404 6.08765 9.92139 6.08765C10.2883 6.08765 10.6027 5.99567 10.8648 5.81171C11.1373 5.61688 11.2736 5.31927 11.2736 4.91882C11.2736 4.50757 11.1373 4.20996 10.8648 4.02594C10.6027 3.84198 10.2935 3.75 9.9371 3.75C9.55975 3.75 9.24004 3.84198 8.978 4.02594C8.71593 4.20996 8.58492 4.50757 8.58492 4.91882C8.58492 5.31927 8.71069 5.61688 8.96227 5.81171Z" fill="#AAAAAA"/>
</svg>
