<svg width="24" height="23" viewBox="0 0 24 23" fill="none" xmlns="http://www.w3.org/2000/svg">
<path d="M11.5436 0.300015C11.7345 -0.0411672 12.2255 -0.0411672 12.4164 0.300016L13.9033 2.95789C14.0407 3.20352 14.3537 3.28738 14.5955 3.14337L17.2121 1.58503C17.548 1.38499 17.9732 1.63048 17.9679 2.02139L17.9267 5.06663C17.9228 5.34805 18.152 5.57717 18.4334 5.57336L21.4786 5.53211C21.8695 5.52682 22.115 5.95202 21.915 6.28791L20.3566 8.90455C20.2126 9.14636 20.2965 9.45934 20.5421 9.59671L23.2 11.0836C23.5412 11.2745 23.5412 11.7655 23.2 11.9564L20.5421 13.4433C20.2965 13.5807 20.2126 13.8937 20.3566 14.1355L21.915 16.7521C22.115 17.088 21.8695 17.5132 21.4786 17.5079L18.4334 17.4667C18.152 17.4628 17.9228 17.692 17.9267 17.9734L17.9679 21.0186C17.9732 21.4095 17.548 21.655 17.2121 21.455L14.5955 19.8966C14.3537 19.7526 14.0407 19.8365 13.9033 20.0821L12.4164 22.74C12.2255 23.0812 11.7345 23.0812 11.5436 22.74L10.0567 20.0821C9.9193 19.8365 9.60632 19.7526 9.36451 19.8966L6.74787 21.455C6.41198 21.655 5.98678 21.4095 5.99207 21.0186L6.03332 17.9734C6.03713 17.692 5.80801 17.4628 5.52659 17.4667L2.48135 17.5079C2.09044 17.5132 1.84495 17.088 2.04499 16.7521L3.60333 14.1355C3.74734 13.8937 3.66348 13.5807 3.41785 13.4433L0.759976 11.9564C0.418794 11.7655 0.418794 11.2745 0.759977 11.0836L3.41785 9.59671C3.66348 9.45934 3.74734 9.14636 3.60333 8.90455L2.04499 6.28791C1.84495 5.95202 2.09044 5.52682 2.48135 5.53211L5.52659 5.57336C5.80801 5.57717 6.03713 5.34805 6.03332 5.06663L5.99207 2.02139C5.98678 1.63048 6.41198 1.38499 6.74787 1.58503L9.36451 3.14337C9.60632 3.28738 9.9193 3.20352 10.0567 2.95789L11.5436 0.300015Z" fill="#AAAAAA"/>
</svg>
