<svg width="90" height="21" viewBox="0 0 90 21" fill="none" xmlns="http://www.w3.org/2000/svg">
<g clip-path="url(#clip0_1_1717)">
<path d="M26.0025 6.50391H27.6094V20.4357H26.0025V6.50391Z" fill="#333333"/>
<path d="M16.1066 6.51569L18.5363 6.51562L3.40967 20.5008L0.97998 20.5009L16.1066 6.51569Z" fill="#333333"/>
<path d="M24.7883 6.51569L27.218 6.51562L12.0913 20.5008L9.66162 20.5009L24.7883 6.51569Z" fill="#333333"/>
<path d="M17.0806 6.50391H18.8534L18.8536 10.1399L17.0806 11.8979V6.50391Z" fill="#333333"/>
<path d="M32.3384 6.50391H34.1134V20.437H32.3384V6.50391Z" fill="#333333"/>
<path d="M34.7614 2.0748C34.7614 1.20506 34.0563 0.5 33.1866 0.5C32.3168 0.5 31.6118 1.20506 31.6118 2.0748C31.6118 2.94454 32.3168 3.6496 33.1866 3.6496C34.0563 3.6496 34.7614 2.94454 34.7614 2.0748Z" fill="#333333"/>
<path d="M38.0005 6.50391H40.3738L52.3921 20.4551H50.0188L38.0005 6.50391Z" fill="#333333"/>
<path d="M52.3921 6.50391H50.0188L38.0005 20.4551H40.3738L52.3921 6.50391Z" fill="#333333"/>
<path d="M26.0025 6.50342H27.6094V20.4352H26.0025V6.50342Z" fill="#333333"/>
<path d="M16.1066 6.51471L18.5363 6.51465L3.40967 20.4998L0.97998 20.4999L16.1066 6.51471Z" fill="#333333"/>
<path d="M24.7883 6.51471L27.218 6.51465L12.0913 20.4998L9.66162 20.4999L24.7883 6.51471Z" fill="#333333"/>
<path d="M17.0801 6.50342H18.8529L18.8531 10.1394L17.0801 11.8974V6.50342Z" fill="#333333"/>
<path d="M32.3379 6.50342H34.113L34.1129 20.4365H32.3379V6.50342Z" fill="#333333"/>
<path d="M34.7614 2.0748C34.7614 1.20506 34.0563 0.5 33.1866 0.5C32.3168 0.5 31.6118 1.20506 31.6118 2.0748C31.6118 2.94454 32.3168 3.6496 33.1866 3.6496C34.0563 3.6496 34.7614 2.94454 34.7614 2.0748Z" fill="#333333"/>
<path d="M38 6.50293H40.3733L52.3916 20.4541H50.0183L38 6.50293Z" fill="#333333"/>
<path d="M52.3916 6.50342H50.0183L38 20.4546H40.3733L52.3916 6.50342Z" fill="#333333"/>
<path d="M59.4548 0.821739L59.5773 0.5H63.8126C64.5243 0.5 65.1573 0.610145 65.7115 0.830435C66.2715 1.05073 66.6887 1.35797 66.9628 1.75217C67.2429 2.14638 67.3829 2.56377 67.3829 3.00435C67.3829 3.68261 67.1349 4.2971 66.6391 4.84783C66.149 5.39275 65.3469 5.79565 64.2327 6.05652C64.9502 6.32319 65.4782 6.67681 65.8165 7.11739C66.1549 7.55797 66.324 8.04203 66.324 8.56957C66.324 9.15507 66.1724 9.71449 65.869 10.2478C65.5657 10.7812 65.1748 11.1957 64.6964 11.4913C64.2239 11.787 63.6522 12.0043 62.9813 12.1435C62.503 12.242 61.7562 12.2913 60.7412 12.2913H56.3921L56.5059 11.9696C56.9609 11.958 57.2701 11.9145 57.4334 11.8391C57.6668 11.7406 57.833 11.6101 57.9322 11.4478C58.0722 11.2275 58.2589 10.7232 58.4923 9.93478L60.6187 2.79565C60.7995 2.19275 60.8899 1.76957 60.8899 1.52609C60.8899 1.31159 60.8082 1.14348 60.6449 1.02174C60.4874 0.894203 60.184 0.830435 59.7348 0.830435C59.6357 0.830435 59.5423 0.827536 59.4548 0.821739ZM61.2312 5.71739C61.6104 5.72899 61.8846 5.73478 62.0538 5.73478C63.2672 5.73478 64.1685 5.47391 64.7577 4.95217C65.3527 4.42464 65.6503 3.76667 65.6503 2.97826C65.6503 2.38116 65.4694 1.91739 65.1077 1.58696C64.746 1.25072 64.1685 1.08261 63.3751 1.08261C63.1651 1.08261 62.8967 1.11739 62.57 1.18696L61.2312 5.71739ZM59.5073 11.5261C60.1374 11.6072 60.6303 11.6478 60.9862 11.6478C61.8962 11.6478 62.7013 11.3754 63.4013 10.8304C64.1072 10.2855 64.4602 9.54638 64.4602 8.61304C64.4602 7.9 64.2414 7.34348 63.8039 6.94348C63.3722 6.54348 62.6721 6.34348 61.7037 6.34348C61.517 6.34348 61.2895 6.35217 61.0212 6.36957L59.5073 11.5261Z" fill="#999999"/>
<path d="M69.8943 9.01304C69.8535 9.3029 69.833 9.54348 69.833 9.73478C69.833 10.2507 70.0168 10.6913 70.3843 11.0565C70.7519 11.4159 71.1981 11.5957 71.7232 11.5957C72.1432 11.5957 72.5457 11.5116 72.9308 11.3435C73.3216 11.1696 73.8992 10.7899 74.6634 10.2043L74.8471 10.4565C73.4645 11.8188 72.1461 12.5 70.8919 12.5C70.0401 12.5 69.3984 12.2333 68.9667 11.7C68.535 11.1667 68.3192 10.5783 68.3192 9.93478C68.3192 9.07102 68.5875 8.18696 69.1242 7.28261C69.6609 6.37826 70.3347 5.67681 71.1456 5.17826C71.9565 4.67391 72.7907 4.42174 73.6483 4.42174C74.2667 4.42174 74.7246 4.54638 75.0222 4.79565C75.3197 5.04493 75.4684 5.34058 75.4684 5.68261C75.4684 6.16377 75.2759 6.62464 74.8909 7.06522C74.3834 7.63913 73.6366 8.1029 72.6507 8.45652C71.9974 8.6942 71.0785 8.87971 69.8943 9.01304ZM69.9556 8.58696C70.8189 8.48841 71.5219 8.32029 72.0644 8.08261C72.782 7.76377 73.3187 7.38406 73.6746 6.94348C74.0363 6.4971 74.2171 6.07391 74.2171 5.67391C74.2171 5.43043 74.1383 5.23333 73.9808 5.08261C73.8292 4.93188 73.6104 4.85652 73.3245 4.85652C72.7295 4.85652 72.0965 5.17246 71.4257 5.80435C70.7606 6.43044 70.2706 7.35797 69.9556 8.58696Z" fill="#999999"/>
<path d="M80.3775 2.26521L79.695 4.63042H81.0688L80.9201 5.17825H79.555L78.0499 10.3087C77.8865 10.8594 77.8048 11.2159 77.8048 11.3783C77.8048 11.4768 77.8282 11.5522 77.8749 11.6043C77.9215 11.6565 77.9769 11.6826 78.0411 11.6826C78.187 11.6826 78.3795 11.5812 78.6187 11.3783C78.7587 11.2623 79.0708 10.9058 79.555 10.3087L79.8437 10.5261C79.307 11.3029 78.7995 11.8507 78.3211 12.1696C77.9944 12.3899 77.6648 12.5 77.3323 12.5C77.0756 12.5 76.8656 12.4217 76.7023 12.2652C76.5389 12.1029 76.4573 11.8971 76.4573 11.6478C76.4573 11.3348 76.5506 10.8565 76.7373 10.213L78.1986 5.17825H76.8773L76.9648 4.83912C77.6065 4.66521 78.1403 4.40724 78.5661 4.06521C78.992 3.71738 79.4675 3.11738 79.9925 2.26521H80.3775Z" fill="#999999"/>
<path d="M89.1194 4.42174L87.413 10.3174L87.2205 11.1087C87.203 11.1841 87.1942 11.2478 87.1942 11.3C87.1942 11.3928 87.2234 11.4739 87.2818 11.5435C87.3284 11.5957 87.3868 11.6217 87.4568 11.6217C87.5326 11.6217 87.6318 11.5754 87.7543 11.4826C87.9818 11.3145 88.2852 10.9667 88.6644 10.4391L88.9619 10.6478C88.5593 11.2507 88.1451 11.7116 87.7193 12.0304C87.2934 12.3435 86.8996 12.5 86.538 12.5C86.2871 12.5 86.0975 12.4362 85.9692 12.3087C85.8467 12.187 85.7854 12.0072 85.7854 11.7696C85.7854 11.4855 85.8496 11.1116 85.9779 10.6478L86.1617 9.99565C85.3975 10.987 84.6945 11.6797 84.0528 12.0739C83.5919 12.358 83.1398 12.5 82.6964 12.5C82.2706 12.5 81.903 12.3261 81.5939 11.9783C81.2847 11.6246 81.1301 11.1406 81.1301 10.5261C81.1301 9.60435 81.4072 8.63333 81.9614 7.61304C82.5214 6.58696 83.2302 5.76667 84.0878 5.15217C84.7587 4.66522 85.3916 4.42174 85.9867 4.42174C86.3425 4.42174 86.6371 4.51449 86.8705 4.7C87.1097 4.88551 87.2905 5.19275 87.413 5.62174L87.728 4.63043L89.1194 4.42174ZM86.0042 4.87391C85.6308 4.87391 85.2341 5.04783 84.8141 5.39565C84.219 5.88841 83.6882 6.61884 83.2215 7.58696C82.7606 8.55507 82.5302 9.43044 82.5302 10.213C82.5302 10.6072 82.6293 10.9203 82.8277 11.1522C83.026 11.3783 83.2536 11.4913 83.5102 11.4913C84.1461 11.4913 84.8374 11.0246 85.5841 10.0913C86.5817 8.85073 87.0805 7.57826 87.0805 6.27391C87.0805 5.78116 86.9842 5.42464 86.7917 5.20435C86.5992 4.98406 86.3367 4.87391 86.0042 4.87391Z" fill="#999999"/>
</g>
<defs>
<clipPath id="clip0_1_1717">
<rect width="89" height="20" fill="white" transform="translate(0.97998 0.5)"/>
</clipPath>
</defs>
</svg>