<svg width="51" height="21" viewBox="0 0 51 21" fill="none" xmlns="http://www.w3.org/2000/svg">
<g clip-path="url(#clip0_1_1697)">
<path d="M25.3152 5.89648H26.878V19.4454H25.3152V5.89648Z" fill="#333333"/>
<path d="M15.6909 5.90924L18.0538 5.90918L3.34289 19.51L0.97998 19.5101L15.6909 5.90924Z" fill="#333333"/>
<path d="M24.1336 5.90924L26.4965 5.90918L11.7857 19.51L9.42273 19.5101L24.1336 5.90924Z" fill="#333333"/>
<path d="M16.6371 5.89648H18.3612L18.3614 9.43256L16.6371 11.1422V5.89648Z" fill="#333333"/>
<path d="M31.4766 5.89844H33.2028V19.4487H31.4766V5.89844Z" fill="#333333"/>
<path d="M33.8326 1.59158C33.8326 0.745743 33.1469 0.0600586 32.3011 0.0600586C31.4553 0.0600586 30.7696 0.745743 30.7696 1.59158C30.7696 2.43741 31.4553 3.1231 32.3011 3.1231C33.1469 3.1231 33.8326 2.43741 33.8326 1.59158Z" fill="#333333"/>
<path d="M36.9837 5.89404H39.2917L50.9797 19.4618H48.6717L36.9837 5.89404Z" fill="#333333"/>
<path d="M50.9811 5.89404H48.6731L36.9851 19.4618H39.2931L50.9811 5.89404Z" fill="#333333"/>
</g>
<defs>
<clipPath id="clip0_1_1697">
<rect width="50" height="20" fill="white" transform="translate(0.97998 0.0600586)"/>
</clipPath>
</defs>
</svg>
